<svg width="962" height="1078" viewBox="0 0 962 1078" fill="none" xmlns="http://www.w3.org/2000/svg">
<path d="M888.324 668.684L751.205 532.921L871.952 413.368C921.069 364.737 943.581 303.947 943.581 241.132C943.581 178.316 921.069 117.526 871.952 70.9211C828.974 24.3158 765.531 0 704.134 0C640.691 0 579.294 24.3158 530.177 70.9211L374.639 224.921C317.335 279.632 235.473 322.184 124.959 316.105C124.959 316.105 215.007 303.947 337.801 156.026C300.963 62.8158 212.961 0 104.493 0C-30.5791 0 -137 105.368 -137 241.132V838.895C-137 972.632 -30.5791 1078 104.493 1078C184.309 1078 243.659 1047.61 296.87 990.868L409.43 875.368L546.549 1007.08C595.667 1053.68 657.063 1078 720.507 1078C781.903 1078 845.346 1053.68 890.371 1007.08C939.488 960.474 962 899.684 962 838.895C962 778.105 937.441 715.289 888.324 668.684Z" fill="#F7B733"/>
</svg>
