<svg width="57" height="56" viewBox="0 0 57 56" fill="none" xmlns="http://www.w3.org/2000/svg">
<path d="M53.1788 34.7368L46.067 27.6842L52.3296 21.4737C54.8771 18.9474 56.0447 15.7895 56.0447 12.5263C56.0447 9.26316 54.8771 6.10526 52.3296 3.68421C50.1006 1.26316 46.8101 0 43.6257 0C40.3352 0 37.1508 1.26316 34.6034 3.68421L26.5363 11.6842C23.5642 14.5263 19.3184 16.7368 13.5866 16.4211C13.5866 16.4211 18.257 15.7895 24.6257 8.10526C22.7151 3.26316 18.1508 0 12.5251 0C5.51955 0 0 5.47368 0 12.5263V43.5789C0 50.5263 5.51955 56 12.5251 56C16.6648 56 19.743 54.4211 22.5028 51.4737L28.3408 45.4737L35.4525 52.3158C38 54.7368 41.1844 56 44.4749 56C47.6592 56 50.9497 54.7368 53.2849 52.3158C55.8324 49.8947 57 46.7368 57 43.5789C57 40.4211 55.7263 37.1579 53.1788 34.7368Z" fill="#032030"/>
</svg>
