<svg width="962" height="1078" viewBox="0 0 962 1078" fill="none" xmlns="http://www.w3.org/2000/svg">
<path d="M886.565 670.461L886.584 670.479L886.603 670.498C935.205 716.614 959.5 778.766 959.5 838.895C959.5 899.057 937.229 959.171 888.65 1005.27L888.61 1005.3L888.573 1005.34C844.054 1051.42 781.276 1075.5 720.507 1075.5C657.725 1075.5 596.944 1051.45 548.28 1005.27C548.276 1005.27 548.273 1005.27 548.27 1005.27L411.162 873.565L409.372 871.846L407.64 873.624L295.079 989.124L295.063 989.141L295.046 989.158C242.236 1045.47 183.52 1075.5 104.493 1075.5C-29.2219 1075.5 -134.5 971.227 -134.5 838.895V241.132C-134.5 106.759 -29.208 2.5 104.493 2.5C211.398 2.5 298.147 64.0692 334.928 155.571C274.106 228.593 221.476 268.108 184.097 289.363C165.308 300.047 150.364 306.123 140.158 309.522C135.054 311.222 131.134 312.254 128.508 312.857C127.195 313.159 126.206 313.354 125.554 313.473C125.228 313.532 124.986 313.572 124.831 313.596C124.753 313.609 124.697 313.617 124.662 313.622L124.627 313.627L124.625 313.628L124.622 313.628C124.622 313.628 124.623 313.628 124.625 313.647L124.822 318.601C236.13 324.724 318.643 281.84 376.365 226.729L376.382 226.714L376.398 226.698L531.898 72.7346C531.904 72.7283 531.911 72.722 531.918 72.7158C580.58 26.5513 641.357 2.5 704.134 2.5C764.916 2.5 827.663 26.5819 870.114 72.6158L870.17 72.6772L870.231 72.7346C918.802 118.822 941.081 178.932 941.081 241.132C941.081 303.321 918.807 363.458 870.193 411.592L749.446 531.144L747.652 532.921L749.446 534.698L886.565 670.461Z" stroke="#F7B733" stroke-width="5"/>
</svg>
